<svg id="Layer_1" data-name="Layer 1" xmlns="http://www.w3.org/2000/svg" viewBox="0 0 743.37 274.45"><defs><style>.cls-1{fill:#17c3b2;}</style></defs><path class="cls-1" d="M701.63,233.71c-3-1.14-6.11-2.29-9.13-3.34-56-16.2-112-10.8-174.29-21.6-43.57-10.8-93.36-5.4-136.93-5.4,103.26,9.95,211.79,6.19,311,43.58-10,12.74-22,22.91-36,22.91-33.57-5-66.71-8.54-99.57-11V237.46c-93.37,16.2-180.52-27-273.88,0,3.32,2.88,1.35,7.28.66,10.77l-.66,0,.66,0c-.62,3.06-.24,5.43,5.57,5.43-5.81,0-6.19-2.37-5.57-5.43,91.85-5.26,177.74-.06,269.46,10.42-142.42-10.11-279.74.41-425.73.41H102.36c-24.9-16.2-49.8-21.6-74.68-21.6,6.21-27-18.69-81,31.12-70.2v-21.6C9,118.66-9.69,43.06,40.12,21.46c56-21.6,130.71,0,199.16-10.8,49.81-5.4,99.61-10.8,149.39,0,68.46,16.2,143.16,10.8,211.61,32.4,24.91,5.4,68.49-10.8,80.94,5.4,8.94,7.76,9.3,19.26,7.93,32.08-40.93-1.91-81.72-2.5-122.07-4.86-49.49-6.05-99-12.77-148.44-23.51C467,67,516.69,72.74,567.08,75.68c40.25,4.93,80.53,9.41,120.79,15.2-1.48,11-2.89,22.52-.44,33.18H706.1c24.91,27,18.67,64.8,6.24,91.8C709.17,221.35,705.6,227.53,701.63,233.71Z"/></svg>