<svg id="Layer_1" data-name="Layer 1" xmlns="http://www.w3.org/2000/svg" viewBox="0 0 743.37 274.45"><defs><style>.cls-1{fill:#227c9d;}</style></defs><path class="cls-1" d="M160.62,52.37c64.83-13.94,143.4,6.87,208.82-5.69C448,29.79,532.75,31.17,611,32.44c-.15,9.07-6.89,22.58-.44,27.23,25.86,14,25.56,32.21,25.27,50.36-.15,9.08-19.56-.31-13.19,8.87-19.56-.32-52.26,3.7-32.83,13.08,6.38,9.2,32.61.53,38.9,14.26s-7,27.13-.66,40.85l26.09.42c6.36,9.2-7,27.15-.44,27.25,19.41,9.4,45.57,5.28,71.64,5.7-.15,9.08,6.24,18.26-6.88,22.6C490.08,248.43,255,262.78,27,245.44c-26-4.95-6.14-22.79,13.64-36.09-6.59,4.43-6.37-9.19-13-4.75.22-13.62,13.63-36.1,39.79-40.23l-19.56-.31c-6.45-4.65.22-13.62.36-22.7,6.53.11,13.05.22,13.12-4.33s.22-13.62.3-18.16l-26.08-.42c6.51.11,13,.21,13.11-4.32S49,100.51,49,96c13.12-4.32,32.53,5.07,45.66.74l.22-13.61c-13-4.76-32.61-.53-45.66-.74,6.61-4.44,6.68-9,6.83-18.06,19.63-4.22,39,9.72,58.75-3.59l-19.56-.32C108.68,37.9,141,56.59,160.62,52.37Z"/></svg>